<?xml version="1.0" encoding="UTF-8"?>
<svg xmlns="http://www.w3.org/2000/svg" xmlns:xlink="http://www.w3.org/1999/xlink" id="Ebene_1" data-name="Ebene 1" viewBox="0 0 126.73 95">
  <defs>
    <style>.cls-1{fill:#fff;}.cls-1,.cls-2,.cls-4{fill-rule:evenodd;}.cls-2{fill:#001a4a;}.cls-3{mask:url(#mask);}.cls-4{fill:#00ecc4;}</style>
    <mask id="mask" x="0" y="0" width="126.73" height="95" maskUnits="userSpaceOnUse">
      <g transform="translate(0 0)">
        <g id="mask-2">
          <polygon id="path-1" class="cls-1" points="0 95 126.73 95 126.73 0 0 0 0 95"></polygon>
        </g>
      </g>
    </mask>
  </defs>
  <g id="Page-1">
    <g id="ekkodale_Desktop_00_Menu-ausgefahren" data-name="ekkodale Desktop 00 Menu-ausgefahren">
      <g id="Group-14">
        <path id="Fill-1" class="cls-2" d="M23,73.66c-4.23,0-6.39,3.42-6.39,6.88s2.16,7,6.39,7a6.64,6.64,0,0,0,6.49-6.78V80.6A6.71,6.71,0,0,0,23,73.66Zm6.81,20.47V90.61h-.1c-1.73,2.7-5.25,4.28-8.82,4.28C12.72,94.89,8,88.06,8,80.54s4.88-14.09,12.72-14.09A10.64,10.64,0,0,1,29,70.08h.1V53.21H38V94.13Z" transform="translate(0 0)"></path>
        <path id="Fill-3" class="cls-2" d="M61,82.39H59.92c-3.9,0-8.28.48-8.28,3.67,0,2.06,2.06,2.76,3.85,2.76,3.56,0,5.58-2.16,5.58-5.52ZM44.74,70.85a17.73,17.73,0,0,1,12-4.55c9,0,12.4,4.47,12.4,14.24V94.13H61V91.26h-.17c-1.35,2.23-4.47,3.52-7.63,3.52-4.28,0-9.8-2.11-9.8-8.45,0-7.82,9.48-9.09,17.33-9.09V76.8c0-2.64-2.11-3.89-4.88-3.89a10.24,10.24,0,0,0-6.7,2.76Z" transform="translate(0 0)"></path>
        <g class="cls-3">
          <polygon id="Fill-5" class="cls-2" points="76 94.13 84.94 94.13 84.94 53.21 76 53.21 76 94.13"></polygon>
        </g>
        <g class="cls-3">
          <path id="Fill-7" class="cls-2" d="M110.6,77.51A4.9,4.9,0,0,0,106,72.36a3.86,3.86,0,0,0-.68,0,5.86,5.86,0,0,0-6.11,5.14Zm8.12,5.58H99.18c.27,3,3.24,5.08,6.43,5.08a7,7,0,0,0,6-2.81l6.17,3.9C115.2,92.94,111,95,105.46,95c-8.11,0-14.83-5.15-14.83-14.24,0-8.83,6.39-14.46,14.53-14.46,8,0,13.53,5.48,13.53,14.68a6.51,6.51,0,0,1,0,2.11Z" transform="translate(0 0)"></path>
        </g>
        <g class="cls-3">
          <path id="Fill-8" class="cls-2" d="M20,24.36a4.88,4.88,0,0,0-4.61-5.15,5.14,5.14,0,0,0-.68,0,5.87,5.87,0,0,0-6.12,5.15Zm8.13,5.52H8.56C8.83,32.85,11.81,35,15,35a7.06,7.06,0,0,0,6-2.82l6.16,3.9c-2.54,3.69-6.77,5.74-12.28,5.74C6.71,41.79,0,36.64,0,27.55,0,18.73,6.39,13.1,14.52,13.1c8,0,13.53,5.47,13.53,14.67a10,10,0,0,1,.05,2.11Z" transform="translate(0 0)"></path>
        </g>
        <g class="cls-3">
          <path id="Fill-9" class="cls-2" d="M111.73,20.47c-4.17,0-6.33,3.35-6.33,6.87s2.23,7,6.38,7,6.39-3.52,6.39-7-2.27-6.87-6.44-6.87m0,21.32c-8.12,0-14.94-5.58-14.94-14.45s6.82-14.24,14.94-14.24,15,5.41,15,14.25-6.8,14.44-15,14.44" transform="translate(0 0)"></path>
        </g>
        <g class="cls-3">
          <polygon id="Fill-10" class="cls-2" points="33.15 40.92 41.73 40.92 41.73 0 33.15 0 33.15 40.92"></polygon>
        </g>
        <g class="cls-3">
          <polygon id="Fill-11" class="cls-4" points="51.54 40.92 41.68 27.28 51.53 13.64 62.09 13.64 52.24 27.28 62.09 40.92 51.54 40.92"></polygon>
        </g>
        <g class="cls-3">
          <polygon id="Fill-12" class="cls-2" points="83.22 40.92 91.76 40.92 91.76 0 83.22 0 83.22 40.92"></polygon>
        </g>
        <g class="cls-3">
          <polygon id="Fill-13" class="cls-4" points="73.36 0 83.22 13.64 73.37 27.28 62.82 27.28 72.67 13.64 62.82 0 73.36 0"></polygon>
        </g>
      </g>
    </g>
  </g>
</svg>
